<svg viewBox="0 0 480 900" preserveAspectRatio="xMidYMid slice" xmlns="http://www.w3.org/2000/svg" data-scene="dawn" data-light="night"><path d="M0 579q175-92 322 30t158-5v296H0Z" fill="#665445" opacity=".2"/><path d="M0 710q272-134 480 21v169H0Z" fill="#453d36" opacity=".22"/><path d="M0 843q231-105 480 11v46H0Z" fill="#312e2d" opacity=".19"/><path data-scene-detail="starlit-dune-crest" d="M0 710q272-134 480 21" fill="none" stroke="#b0a18c" stroke-width=".8" opacity=".17"/><path data-scene-detail="rain-haze" d="M0 575q220-44 480 8v98q-254-23-480 5Z" fill="currentColor" opacity=".025"/><g fill="none" stroke="currentColor" stroke-width="1" opacity=".16"><path d="M0 0l-6 22"/><path d="M79 59l-6 22"/><path d="M158 118l-6 22"/><path d="M237 177l-6 22"/><path d="M316 236l-6 22"/><path d="M395 295l-6 22"/><path d="M474 354l-6 22"/><path d="M73 413l-6 22"/><path d="M152 472l-6 22"/><path d="M231 531l-6 22"/><path d="M310 590l-6 22"/><path d="M389 649l-6 22"/><path d="M468 708l-6 22"/><path d="M67 767l-6 22"/><path d="M146 826l-6 22"/><path d="M225 885l-6 22"/><path d="M304 54l-6 22"/><path d="M383 113l-6 22"/><path d="M462 172l-6 22"/><path d="M61 231l-6 22"/><path d="M140 290l-6 22"/><path d="M219 349l-6 22"/><path d="M298 408l-6 22"/></g></svg>