<svg viewBox="0 0 480 900" preserveAspectRatio="xMidYMid slice" xmlns="http://www.w3.org/2000/svg" data-scene="dusk" data-light="night"><path d="m0 564 60-213 130 171 103-50 108-161 79 160v429H0Z" fill="#4d4968" opacity=".28"/><path d="m0 714 68-129 136 137 128-196 148 110v264H0Z" fill="#302f49" opacity=".25"/><g data-scene-detail="moonlit-ridges" fill="none" stroke="#c2b9d0" opacity=".19"><path d="m17 503 43-152 74 98m229-82 38-56 49 99"/></g><path data-scene-detail="valley-night-cloud" d="M0 747q98-35 211 1t269-3v33q-108-16-249-1T0 776Z" fill="#aca5bc" opacity=".1"/><path data-scene-detail="rain-haze" d="M0 575q220-44 480 8v98q-254-23-480 5Z" fill="currentColor" opacity=".025"/><g data-scene-detail="weather-snow" class="snowfall" fill="#e1e9e5" opacity=".65"><circle cx="9" cy="30" r="1"/><circle cx="136" cy="221" r="2"/><circle cx="263" cy="412" r="3"/><circle cx="390" cy="603" r="1"/><circle cx="37" cy="794" r="2"/><circle cx="164" cy="85" r="3"/><circle cx="291" cy="276" r="1"/><circle cx="418" cy="467" r="2"/><circle cx="65" cy="658" r="3"/><circle cx="192" cy="849" r="1"/><circle cx="319" cy="140" r="2"/><circle cx="446" cy="331" r="3"/><circle cx="93" cy="522" r="1"/><circle cx="220" cy="713" r="2"/><circle cx="347" cy="4" r="3"/><circle cx="474" cy="195" r="1"/><circle cx="121" cy="386" r="2"/><circle cx="248" cy="577" r="3"/><circle cx="375" cy="768" r="1"/><circle cx="22" cy="59" r="2"/><circle cx="149" cy="250" r="3"/><circle cx="276" cy="441" r="1"/><circle cx="403" cy="632" r="2"/><circle cx="50" cy="823" r="3"/><circle cx="177" cy="114" r="1"/><circle cx="304" cy="305" r="2"/><circle cx="431" cy="496" r="3"/><circle cx="78" cy="687" r="1"/><circle cx="205" cy="878" r="2"/><circle cx="332" cy="169" r="3"/><circle cx="459" cy="360" r="1"/><circle cx="106" cy="551" r="2"/></g><path data-scene-detail="snow-dusting" d="M0 848q231-105 480 11" fill="none" stroke="#c3cdcb" stroke-width="2" opacity=".25"/></svg>