<svg viewBox="0 0 480 900" preserveAspectRatio="xMidYMid slice" xmlns="http://www.w3.org/2000/svg" data-scene="forest" data-light="night"><g transform="translate(-5 693) scale(1.9)" fill="#294837" opacity="0.43"><path d="M-3 0 1-220 5 0Z"/><path d="m0-230-26 51 18-4-36 48 24-7-47 62 35-10-55 64 78-24 75 24-49-64 30 9-45-61 22 7-34-49 17 5Z"/></g><g transform="translate(486 756) scale(2.3)" fill="#294837" opacity="0.49"><path d="M-3 0 1-220 5 0Z"/><path d="m0-230-26 51 18-4-36 48 24-7-47 62 35-10-55 64 78-24 75 24-49-64 30 9-45-61 22 7-34-49 17 5Z"/></g><g transform="translate(33 779) scale(1.05)" fill="#294837" opacity="0.19"><path d="M-3 0 1-220 5 0Z"/><path d="m0-230-26 51 18-4-36 48 24-7-47 62 35-10-55 64 78-24 75 24-49-64 30 9-45-61 22 7-34-49 17 5Z"/></g><path d="M0 809q260-80 480-10v101H0Z" fill="#294837" opacity=".15"/><g data-scene-detail="forest-fireflies" fill="#d9dca4" class="firefly-preview"><circle cx="29" cy="651" r="1.9"/><circle cx="69" cy="707" r="1.4"/><circle cx="449" cy="677" r="2"/><circle cx="423" cy="770" r="1.5"/></g><path data-scene-detail="forest-night-mist" d="M0 737q144-35 302 5t178-8v60q-168 19-302-3T0 798Z" fill="#a3b7a4" opacity=".05"/><path data-scene-detail="rain-haze" d="M0 575q220-44 480 8v98q-254-23-480 5Z" fill="currentColor" opacity=".025"/><g data-scene-detail="weather-overcast" class="weather-mist" fill="currentColor" opacity=".035"><path d="M0 303q135-42 252 0t228-7v33q-109-14-242 8T0 331Z"/><path d="M0 573q136-42 251 0t229-7v58q-109-14-242 8T0 601Z"/></g></svg>