<svg viewBox="0 0 480 900" preserveAspectRatio="xMidYMid slice" xmlns="http://www.w3.org/2000/svg" data-scene="night" data-light="night"><g opacity=".52" fill="#d9e3e1"><circle cx="31" cy="21" r="1.5"/><circle cx="171" cy="129" r="0.7"/><circle cx="397" cy="29" r="0.7"/><circle cx="229" cy="71" r="0.7"/><circle cx="147" cy="255" r="0.7"/><circle cx="151" cy="231" r="1.5"/><circle cx="241" cy="349" r="0.7"/><circle cx="417" cy="259" r="0.7"/><circle cx="199" cy="311" r="0.7"/><circle cx="67" cy="155" r="0.7"/><circle cx="21" cy="141" r="1.5"/><circle cx="61" cy="269" r="0.7"/><circle cx="187" cy="189" r="0.7"/><circle cx="399" cy="251" r="0.7"/><circle cx="217" cy="105" r="0.7"/><circle cx="121" cy="101" r="1.5"/><circle cx="111" cy="239" r="0.7"/><circle cx="187" cy="169" r="0.7"/><circle cx="349" cy="241" r="0.7"/><circle cx="117" cy="105" r="0.7"/></g><path d="M410 151a33 33 0 0 1 0 66Q438.05 184 410 151Z" fill="#e4dfc4" opacity=".63"/><path d="m0 639 67-55 111 64 137-74 165 42v284H0Z" fill="#314b5f" opacity=".28"/><path d="M0 742q275-25 480 18v140H0Z" fill="#213546" opacity=".21"/></svg>