<svg viewBox="0 0 480 900" preserveAspectRatio="xMidYMid slice" xmlns="http://www.w3.org/2000/svg" data-scene="paper" data-light="night"><g fill="none" stroke="currentColor" opacity=".14"><path d="M0 900q34-124 30-265m-6 150 61-66m-51 34L0 712" stroke-width="2"/></g><g fill="currentColor" opacity=".15"><path d="M34 756q-23-20-26-48 24 17 26 48m2-14q19-38 33-42 0 30-33 42m23-6q-8-31 5-52 8 34-5 52m5-1q31-19 43-9-15 12-43 9"/></g><g data-scene-detail="moon-window" stroke="#c4c2aa" fill="none" opacity=".12"><circle cx="426" cy="218" r="53" stroke-width="2"/><path d="M373 218h106m-79-46v92m26-98v105m26-93v79" stroke-width=".7"/></g><g data-scene-detail="window-shadow" stroke="#c2bfa7" opacity=".04"><path d="m379 272-75 132m99-130-62 144m89-150-47 163m-60-77 100 19m-118 13 111 23" stroke-width="2"/></g><path data-scene-detail="rain-haze" d="M0 575q220-44 480 8v98q-254-23-480 5Z" fill="currentColor" opacity=".025"/><g fill="none" stroke="currentColor" stroke-width="1" opacity=".16"><path d="M0 0l-6 22"/><path d="M79 59l-6 22"/><path d="M158 118l-6 22"/><path d="M237 177l-6 22"/><path d="M316 236l-6 22"/><path d="M395 295l-6 22"/><path d="M474 354l-6 22"/><path d="M73 413l-6 22"/><path d="M152 472l-6 22"/><path d="M231 531l-6 22"/><path d="M310 590l-6 22"/><path d="M389 649l-6 22"/><path d="M468 708l-6 22"/><path d="M67 767l-6 22"/><path d="M146 826l-6 22"/><path d="M225 885l-6 22"/><path d="M304 54l-6 22"/><path d="M383 113l-6 22"/><path d="M462 172l-6 22"/><path d="M61 231l-6 22"/><path d="M140 290l-6 22"/><path d="M219 349l-6 22"/><path d="M298 408l-6 22"/></g><path data-scene-detail="storm-cloud" d="M0 233q123-47 241-8t239-11v79q-112-23-240 0T0 296Z" fill="currentColor" opacity=".07"/></svg>