<svg viewBox="0 0 480 900" preserveAspectRatio="xMidYMid slice" xmlns="http://www.w3.org/2000/svg" data-scene="paper" data-light="day"><g fill="none" stroke="currentColor" opacity=".14"><path d="M0 900q34-124 30-265m-6 150 61-66m-51 34L0 712" stroke-width="2"/></g><g fill="currentColor" opacity=".15"><path d="M34 756q-23-20-26-48 24 17 26 48m2-14q19-38 33-42 0 30-33 42m23-6q-8-31 5-52 8 34-5 52m5-1q31-19 43-9-15 12-43 9"/></g><path data-scene-detail="day-ink-circle" d="M475 324c-74-64-143 28-103 87 44 71 160 18 111-61" fill="none" stroke="#626b57" stroke-width="8" opacity=".095"/><path data-scene-detail="bamboo-shadow" d="m0 859 112-180m-26 42 51-5m-32-30 16-47" stroke="#7f856f" stroke-width="2" opacity=".08"/></svg>